<svg xmlns="http://www.w3.org/2000/svg" width="22" height="22" viewBox="0 0 22 22">
    <path fill="#4A4A4A" fill-rule="evenodd" d="M11 22C4.925 22 0 17.075 0 11S4.925 0 11 0s11 4.925 11 11-4.925 11-11 11zm0-1.833a9.167 9.167 0 1 0 0-18.334 9.167 9.167 0 0 0 0 18.334zM7.333 8.537c0-.46.15-.926.448-1.399.298-.472.733-.863 1.305-1.173.572-.31 1.24-.465 2.002-.465.709 0 1.335.13 1.877.389.543.259.962.611 1.258 1.057.296.445.444.93.444 1.453 0 .412-.085.773-.253 1.083-.169.31-.37.577-.602.802-.232.226-.649.605-1.25 1.137-.166.15-.3.283-.4.396-.1.114-.174.218-.223.313a1.525 1.525 0 0 0-.114.283c-.027.095-.067.26-.121.498-.093.504-.384.755-.873.755a.897.897 0 0 1-.641-.247c-.174-.164-.26-.409-.26-.733 0-.407.063-.76.19-1.058a2.68 2.68 0 0 1 .506-.784c.21-.225.494-.493.85-.803.314-.271.54-.476.679-.614.14-.138.257-.292.352-.461.095-.17.143-.354.143-.553 0-.387-.145-.714-.436-.98-.291-.267-.666-.4-1.126-.4-.538 0-.934.134-1.188.403-.254.27-.47.665-.645 1.188-.167.548-.482.821-.946.821a.934.934 0 0 1-.693-.287c-.189-.191-.283-.398-.283-.621zm3.579 7.963a1.16 1.16 0 0 1-.781-.287c-.222-.191-.334-.459-.334-.803 0-.305.108-.562.323-.77.215-.208.48-.312.792-.312.308 0 .567.104.777.312.21.208.316.465.316.77 0 .34-.11.606-.33.8a1.12 1.12 0 0 1-.763.29z"/>
</svg>
