<?xml version="1.0" encoding="UTF-8"?>
<svg width="16px" height="16px" viewBox="0 0 16 16" version="1.1" xmlns="http://www.w3.org/2000/svg" xmlns:xlink="http://www.w3.org/1999/xlink">
    <!-- Generator: Sketch 55.2 (78181) - https://sketchapp.com -->
    <title>Icon/Globe</title>
    <desc>Created with Sketch.</desc>
    <g id="Page-1" stroke="none" stroke-width="1" fill="none" fill-rule="evenodd">
        <g id="Localisation---Consistent-3" transform="translate(-894.000000, -24.000000)" fill="#4A4A4A">
            <g id="Icon/Globe" transform="translate(894.000000, 24.000000)">
                <path d="M4.00731022,8.33333339 C4.04743163,9.24452673 4.25280237,10.1288417 4.62582909,10.987257 C5.59433358,10.7984401 6.6135627,10.6888412 7.6666666,10.6696935 L7.66666667,8.33333333 L4.00730962,8.33333333 Z M4.00730962,7.66666667 L7.66666667,7.66666667 L7.66666667,5.33030697 C6.6135627,5.31115879 5.59433358,5.2015599 4.62582909,5.01274303 C4.25280237,5.87115825 4.04743163,6.75547327 4.00731022,7.66666661 Z M11.9926904,8.33333333 L8.33333333,8.33333333 L8.33333333,10.669693 C9.3864373,10.6888412 10.4056664,10.7984401 11.3741709,10.987257 C11.7471976,10.1288417 11.9525684,9.24452673 11.9926898,8.33333339 Z M11.9926898,7.66666661 C11.9525684,6.75547327 11.7471976,5.87115825 11.3741709,5.01274303 C10.4056664,5.2015599 9.3864373,5.31115879 8.3333334,5.33030648 L8.33333333,7.66666667 L11.9926904,7.66666667 Z M12.659979,7.66666667 L14.6584783,7.66666667 C14.5995144,6.46922685 14.2246165,5.3548613 13.6153961,4.40518178 C13.1099358,4.58393497 12.5830231,4.73930817 12.0379015,4.86913924 C12.4138457,5.77142744 12.6212046,6.70393656 12.6599783,7.6666666 Z M12.6599783,8.3333334 C12.6212046,9.29606344 12.4138457,10.2285726 12.0379015,11.1308608 C12.5830231,11.2606918 13.1099358,11.416065 13.6153961,11.5948182 C14.2246165,10.6451387 14.5995144,9.53077315 14.6584783,8.33333333 L12.659979,8.33333333 Z M3.34002165,7.6666666 C3.37879538,6.70393656 3.58615432,5.77142744 3.96209848,4.86913924 C3.41697685,4.73930817 2.89006425,4.58393497 2.38460385,4.40518178 C1.77538355,5.3548613 1.40048557,6.46922685 1.34152167,7.66666667 L3.34002098,7.66666667 Z M3.34002098,8.33333333 L1.34152167,8.33333333 C1.40048557,9.53077315 1.77538355,10.6451387 2.38460385,11.5948182 C2.89006425,11.416065 3.41697685,11.2606918 3.96209848,11.1308608 C3.58615432,10.2285726 3.37879538,9.29606344 3.34002165,8.3333334 Z M7.66666666,1.34152167 C7.57767276,1.34590388 7.48913772,1.35203114 7.40109504,1.35986996 C6.31449373,2.33222285 5.49146457,3.34220899 4.92741126,4.39169721 C5.80102897,4.55189889 6.718475,4.64567563 7.66666659,4.66353207 L7.66666667,1.34152168 Z M8.33333333,1.34152168 L8.33333333,4.66353253 C9.281525,4.64567563 10.198971,4.55189889 11.0725887,4.39169721 C10.5085354,3.34220899 9.68550627,2.33222285 8.59890496,1.35986996 C8.51086228,1.35203114 8.42232724,1.34590388 8.33333334,1.34152167 Z M7.66666667,14.6584783 L7.66666667,11.3364675 C6.718475,11.3543244 5.80102897,11.4481011 4.92741126,11.6083028 C5.49146457,12.657791 6.31449373,13.6677772 7.40109504,14.64013 C7.48913772,14.6479689 7.57767276,14.6540961 7.66666666,14.6584783 Z M8.33333334,14.6584783 C8.42232724,14.6540961 8.51086228,14.6479689 8.59890496,14.64013 C9.68550627,13.6677772 10.5085354,12.657791 11.0725887,11.6083028 C10.198971,11.4481011 9.281525,11.3543244 8.33333341,11.3364679 L8.33333333,14.6584783 Z M11.7519799,4.25181548 C12.2556073,4.13655617 12.7426289,3.9988368 13.2103204,3.84063467 C12.3475227,2.76124571 11.1563009,1.95584702 9.78805399,1.57583746 C10.6253551,2.4350863 11.279997,3.32707897 11.7519799,4.25181548 Z M4.24802011,4.25181548 C4.72000297,3.32707897 5.37464494,2.4350863 6.21194601,1.57583746 C4.84369909,1.95584702 3.65247734,2.76124571 2.7896796,3.84063467 C3.25737112,3.9988368 3.74439273,4.13655617 4.24802011,4.25181548 Z M11.7519799,11.7481845 C11.279997,12.672921 10.6253551,13.5649137 9.78805399,14.4241625 C11.1563009,14.044153 12.3475227,13.2387543 13.2103204,12.1593653 C12.7426289,12.0011632 12.2556073,11.8634438 11.7519799,11.7481845 Z M4.24802011,11.7481845 C3.74439273,11.8634438 3.25737112,12.0011632 2.7896796,12.1593653 C3.65247734,13.2387543 4.84369909,14.044153 6.21194601,14.4241625 C5.37464494,13.5649137 4.72000297,12.672921 4.24802011,11.7481845 Z M8,16 C3.581722,16 0,12.418278 0,8 C0,3.581722 3.581722,0 8,0 C12.418278,0 16,3.581722 16,8 C16,12.418278 12.418278,16 8,16 Z" id="Globe"></path>
            </g>
        </g>
    </g>
</svg>