<?xml version="1.0" encoding="utf-8"?>
<!-- Generator: Adobe Illustrator 22.0.1, SVG Export Plug-In . SVG Version: 6.00 Build 0)  -->
<svg version="1.1" id="Layer_1" xmlns="http://www.w3.org/2000/svg" xmlns:xlink="http://www.w3.org/1999/xlink" x="0px" y="0px"
	 viewBox="0 0 34 24" style="enable-background:new 0 0 34 24;" xml:space="preserve">
<style type="text/css">
	.st0{fill:#DAE4EB;}
</style>
<title>“</title>
<desc>Created with Sketch.</desc>
<g id="Homepage-_x28_DESKTOP-XLARGE_x29_" transform="translate(-932.000000, -203.000000)">
	<g id="USP---1" transform="translate(-277.000000, -4.000000)">
		<g id="Group-5" transform="translate(1185.000000, 174.000000)">
			<path id="_x201C_" class="st0" d="M37,33l3.3,3.6c-3.9,2-8,5.6-9.2,9.2c0.1-0.1,0.7-0.1,0.9-0.1c2.5,0,4.7,2,4.7,4.9
				c0,3.6-3.2,6.4-6.5,6.4c-3.2,0-5.8-2.1-5.8-6.3C24.4,43.8,30.3,36.4,37,33z M54.4,33l3.3,3.6c-3.9,2-7.9,5.6-9.2,9.2
				c0.2-0.1,0.7-0.1,1-0.1c2.4,0,4.6,2,4.6,4.9c0,3.6-3.2,6.4-6.5,6.4c-3.2,0-5.8-2.1-5.8-6.3C41.7,43.8,47.6,36.4,54.4,33z"/>
		</g>
	</g>
</g>
</svg>
